<?xml version="1.0" standalone="no"?>
<!DOCTYPE svg PUBLIC "-//W3C//DTD SVG 20010904//EN"
 "http://www.w3.org/TR/2001/REC-SVG-20010904/DTD/svg10.dtd">
<svg version="1.0" xmlns="http://www.w3.org/2000/svg"
 width="650.000000pt" height="650.000000pt" viewBox="0 0 650.000000 650.000000"
 preserveAspectRatio="xMidYMid meet">
<metadata>
Created by potrace 1.11, written by Peter Selinger 2001-2013
</metadata>
<g transform="translate(0.000000,650.000000) scale(0.100000,-0.100000)"
fill="#000000" stroke="none">
<path d="M2790 6140 c-288 -60 -516 -125 -637 -181 -24 -10 -46 -19 -51 -19
-13 0 -276 -135 -310 -158 -16 -12 -33 -22 -36 -22 -12 0 -187 -120 -301 -206
-135 -101 -424 -391 -522 -524 -81 -109 -182 -261 -203 -305 -8 -16 -23 -42
-33 -58 -26 -39 -97 -178 -97 -191 0 -6 -14 -38 -30 -71 -17 -33 -30 -63 -30
-67 0 -5 -9 -27 -19 -51 -11 -23 -25 -62 -31 -87 -6 -25 -20 -70 -30 -100 -24
-70 -64 -235 -80 -325 -6 -38 -16 -89 -21 -112 -5 -23 -9 -51 -9 -62 l0 -21
1241 0 c925 0 1252 -3 1281 -12 51 -15 77 -40 245 -240 86 -101 144 -178 148
-196 7 -33 -7 -68 -34 -89 -12 -10 -338 -12 -1448 -13 l-1433 0 0 -66 c0 -36
4 -84 9 -107 5 -23 15 -73 21 -112 29 -169 112 -466 161 -572 10 -24 19 -46
19 -51 0 -25 187 -373 248 -462 128 -187 156 -226 202 -280 69 -82 288 -298
364 -360 37 -30 84 -69 104 -86 41 -34 248 -174 258 -174 3 0 20 -10 36 -22
34 -23 297 -158 310 -158 5 0 27 -9 51 -19 102 -47 384 -132 533 -160 485 -92
733 -91 1198 4 71 14 161 37 200 50 39 13 91 28 116 35 25 6 64 20 87 31 24
10 46 19 51 19 5 0 27 9 50 20 22 11 45 20 50 20 13 0 276 134 310 158 16 12
33 22 37 22 10 0 205 139 317 226 62 49 391 378 442 444 20 25 58 77 85 115
28 39 59 81 70 95 11 14 21 29 21 33 0 4 19 36 42 70 41 61 158 282 158 299 0
5 13 37 29 71 77 161 161 468 210 762 7 39 16 95 22 125 12 61 6 385 -10 540
-14 147 -41 292 -80 435 -11 39 -27 97 -36 130 -9 33 -22 74 -29 90 -8 17 -17
44 -21 62 -3 18 -15 50 -26 72 -10 22 -19 44 -19 49 0 4 -40 87 -88 182 -81
161 -244 421 -331 529 -60 74 -342 360 -399 405 -30 22 -72 56 -95 74 -57 45
-265 184 -302 202 -16 8 -43 23 -58 33 -36 25 -217 117 -229 117 -5 0 -28 9
-50 20 -23 11 -45 20 -50 20 -5 0 -27 8 -51 19 -58 26 -93 38 -157 54 -30 8
-63 18 -72 22 -17 7 -18 -9 -18 -251 0 -249 1 -261 22 -302 19 -36 35 -49 93
-77 229 -109 306 -145 310 -145 3 0 50 -22 106 -50 l101 -49 28 20 c15 12 38
19 51 17 93 -13 34 -268 -63 -268 -16 0 -64 16 -106 36 -88 41 -178 83 -307
144 -279 131 -262 125 -355 124 -79 -1 -92 -5 -180 -47 -418 -199 -547 -257
-574 -257 -51 0 -96 63 -110 155 -14 91 34 141 93 97 l30 -22 118 57 c65 31
197 93 293 138 123 57 178 88 186 104 7 12 17 28 23 34 15 15 16 603 1 612
-33 20 -288 38 -570 41 -301 2 -307 2 -440 -26z m-518 -956 c107 -36 182 -145
182 -264 0 -297 -400 -389 -531 -122 -71 145 2 333 151 386 55 19 142 20 198
0z m432 -650 c22 -21 66 -60 96 -88 30 -29 154 -140 275 -247 121 -108 228
-206 239 -217 38 -44 19 -89 -74 -176 -65 -60 -78 -58 -178 32 -225 203 -410
366 -434 384 l-28 19 0 -280 c0 -268 -1 -282 -20 -301 -19 -19 -33 -20 -404
-20 -336 0 -387 2 -400 16 -14 13 -16 55 -16 300 0 156 -4 284 -8 284 -5 0
-42 -30 -83 -66 -129 -116 -231 -208 -334 -301 -104 -94 -132 -113 -161 -113
-22 0 -142 126 -150 157 -3 12 -3 30 0 40 3 11 113 114 244 230 237 212 258
231 364 330 l57 53 487 0 487 0 41 -36z m2157 -190 c203 -110 189 -413 -23
-504 -142 -61 -308 4 -369 144 -29 66 -30 162 -1 227 65 148 249 210 393 133z
m80 -603 l24 -19 3 -285 3 -285 31 -13 c103 -42 272 -183 360 -299 62 -81 141
-241 167 -340 78 -286 22 -607 -147 -845 -141 -200 -342 -339 -581 -402 -83
-22 -117 -26 -246 -26 -130 0 -163 3 -250 26 -252 67 -468 226 -607 447 -38
60 -88 162 -88 179 0 29 -22 0 -93 -124 -94 -162 -99 -165 -190 -109 -185 113
-337 218 -339 233 -3 34 3 52 28 91 36 54 62 59 121 24 26 -15 48 -23 50 -17
3 8 424 731 462 793 8 13 68 15 420 18 l411 3 0 109 0 110 -324 0 -325 0 -27
23 c-51 44 -43 191 12 216 17 7 125 11 344 11 l320 0 0 225 0 226 25 24 c24
25 25 25 218 25 177 0 197 -2 218 -19z m-2352 -789 c12 -23 -150 -1114 -169
-1137 -11 -13 -47 -15 -245 -15 -184 0 -235 3 -244 14 -11 13 -171 1055 -171
1114 0 17 6 33 13 35 6 3 191 6 409 6 372 1 398 0 407 -17z"/>
<path d="M4970 2674 c0 -126 -4 -223 -10 -234 -19 -36 -71 -40 -577 -40 l-492
0 -58 -97 c-65 -111 -68 -132 -33 -268 35 -138 110 -265 218 -367 139 -133
298 -202 492 -214 349 -22 675 202 789 541 99 298 -8 652 -258 848 -33 26 -62
47 -65 47 -3 0 -6 -97 -6 -216z"/>
</g>
</svg>
