<svg width="31" height="43" viewBox="0 0 31 43" xmlns="http://www.w3.org/2000/svg">
	<defs>
		<filter x="-50%" y="-50%" width="200%" height="200%" filterUnits="objectBoundingBox" id="a">
			<feMorphology radius="1" in="SourceAlpha" operator="dilate" result="shadowSpreadOuter1" />
			<feOffset in="shadowSpreadOuter1" result="shadowOffsetOuter1" />
			<feGaussianBlur stdDeviation="1.5" in="shadowOffsetOuter1" result="shadowBlurOuter1" />
			<feColorMatrix values="0 0 0 0 1 0 0 0 0 1 0 0 0 0 1 0 0 0 0.588 0" in="shadowBlurOuter1" result="shadowMatrixOuter1" />
			<feMerge>
				<feMergeNode in="shadowMatrixOuter1" />
				<feMergeNode in="SourceGraphic" />
			</feMerge>
		</filter>
	</defs>
	<g transform="translate(3 4)" fill="none">
		<ellipse fill="#313131" cx="12" cy="35.264" rx="3.736" ry="3.736" />
		<path d="M5.736 12.427c0-3.38 2.735-6.12 6.116-6.12 3.38 0 6.12 2.74 6.12 6.12 0 3.383-2.74 6.12-6.12 6.12s-6.116-2.737-6.116-6.12" opacity=".896" fill="#f9ed43" />
		<path d="M.792 11.315c0 6.635 11.256 22.603 11.256 22.603S23.305 17.95 23.305 11.315C23.305 5.387 18.292.54 12.048.54 5.805.54.792 5.386.792 11.314zm11.256-4.38c2.962 0 5.36 2.4 5.36 5.36 0 2.965-2.398 5.362-5.36 5.362S6.69 15.26 6.69 12.297c0-2.962 2.396-5.362 5.358-5.362z" fill="#000000" filter="url(#a)" />
	</g>
</svg>
