<?xml version="1.0" encoding="utf-8"?>
<!-- Generator: Adobe Illustrator 24.3.0, SVG Export Plug-In . SVG Version: 6.00 Build 0) -->
<svg version="1.1" xmlns="http://www.w3.org/2000/svg" xmlns:xlink="http://www.w3.org/1999/xlink" width="40" height="47" viewBox="0 0 40 47" style="enable-background:new 0 0 40 47;" xml:space="preserve">
	<style type="text/css">
		.st0{filter:url(#a);}
		.st1{fill-rule:evenodd;clip-rule:evenodd;}
		.st2{fill-rule:evenodd;clip-rule:evenodd;fill:#0072BB;}
		.st3{fill:#FFFFFF;}
	</style>
	<filter filterUnits="objectBoundingBox" height="150%" id="a" width="157.5%" x="-28.8%" y="-20.6%">
		<feMorphology in="SourceAlpha" operator="dilate" radius="1" result="shadowSpreadOuter1">
		</feMorphology>
		<feOffset dy="2" in="shadowSpreadOuter1" result="shadowOffsetOuter1">
		</feOffset>
		<feGaussianBlur in="shadowOffsetOuter1" result="shadowBlurOuter1" stdDeviation="2.5">
		</feGaussianBlur>
		<feColorMatrix in="shadowBlurOuter1" values="0 0 0 0 0 0 0 0 0 0.0235294118 0 0 0 0 0.0235294118 0 0 0 0.14 0">
		</feColorMatrix>
	</filter>
	<g id="Pin">
		<g>
			<path d="M20,46c1.7,0,3.4-6.3,5-6.7c8.6-2.2,15-10.1,15-19.4C40,9,31,0,20,0S0,9,0,20c0,9.3,6.4,17.1,15,19.4
			C16.6,39.8,18.3,46,20,46z" />
			<g class="st0">
				<path id="b_2_" class="st1" d="M20,46c1.7,0,3.4-6.3,5-6.7c8.6-2.2,15-10.1,15-19.4C40,9,31,0,20,0S0,9,0,20
				c0,9.3,6.4,17.1,15,19.4C16.6,39.8,18.3,46,20,46z" />
			</g>
			<g>
				<path id="b_1_" class="st2" d="M20,46c1.7,0,3.4-6.3,5-6.7c8.6-2.2,15-10.1,15-19.4C40,9,31,0,20,0S0,9,0,20
				c0,9.3,6.4,17.1,15,19.4C16.6,39.8,18.3,46,20,46z" />
			</g>
		</g>
	</g>
	<g id="Logo">
		<g transform="translate(0.000000,650.000000) scale(0.100000,-0.100000)">
			<path class="st3" d="M173.4,6468.5c-16.3-3.4-29.3-7.1-36.1-10.3c-1.4-0.6-2.6-1.1-2.9-1.1c-0.7,0-15.7-7.7-17.6-9
			c-0.9-0.7-1.9-1.2-2-1.2c-0.7,0-10.6-6.8-17.1-11.7c-7.7-5.7-24-22.2-29.6-29.7c-4.6-6.2-10.3-14.8-11.5-17.3
			c-0.5-0.9-1.3-2.4-1.9-3.3c-1.5-2.2-5.5-10.1-5.5-10.8c0-0.3-0.8-2.2-1.7-4c-1-1.9-1.7-3.6-1.7-3.8c0-0.3-0.5-1.5-1.1-2.9
			c-0.6-1.3-1.4-3.5-1.8-4.9c-0.3-1.4-1.1-4-1.7-5.7c-1.4-4-3.6-13.3-4.5-18.4c-0.3-2.2-0.9-5-1.2-6.4s-0.5-2.9-0.5-3.5v-1.2h70.4
			c52.5,0,71-0.2,72.7-0.7c2.9-0.9,4.4-2.3,13.9-13.6c4.9-5.7,8.2-10.1,8.4-11.1c0.4-1.9-0.4-3.9-1.9-5c-0.7-0.6-19.2-0.7-82.1-0.7
			H35v-3.7c0-2,0.2-4.8,0.5-6.1s0.9-4.1,1.2-6.4c1.6-9.6,6.4-26.4,9.1-32.4c0.6-1.4,1.1-2.6,1.1-2.9c0-1.4,10.6-21.2,14.1-26.2
			c7.3-10.6,8.8-12.8,11.5-15.9c3.9-4.7,16.3-16.9,20.6-20.4c2.1-1.7,4.8-3.9,5.9-4.9c2.3-1.9,14.1-9.9,14.6-9.9
			c0.2,0,1.1-0.6,2-1.2c1.9-1.3,16.8-9,17.6-9c0.3,0,1.5-0.5,2.9-1.1c5.8-2.7,21.8-7.5,30.2-9.1c27.5-5.2,41.6-5.2,68,0.2
			c4,0.8,9.1,2.1,11.3,2.8c2.2,0.7,5.2,1.6,6.6,2c1.4,0.3,3.6,1.1,4.9,1.8c1.4,0.6,2.6,1.1,2.9,1.1s1.5,0.5,2.8,1.1
			c1.2,0.6,2.6,1.1,2.8,1.1c0.7,0,15.7,7.6,17.6,9c0.9,0.7,1.9,1.2,2.1,1.2c0.6,0,11.6,7.9,18,12.8c3.5,2.8,22.2,21.4,25.1,25.2
			c1.1,1.4,3.3,4.4,4.8,6.5c1.6,2.2,3.3,4.6,4,5.4c0.6,0.8,1.2,1.6,1.2,1.9c0,0.2,1.1,2,2.4,4c2.3,3.5,9,16,9,17
			c0,0.3,0.7,2.1,1.6,4c4.4,9.1,9.1,26.5,11.9,43.2c0.4,2.2,0.9,5.4,1.2,7.1c0.7,3.5,0.3,21.8-0.6,30.6c-0.8,8.3-2.3,16.6-4.5,24.7
			c-0.6,2.2-1.5,5.5-2,7.4c-0.5,1.9-1.2,4.2-1.6,5.1c-0.5,1-1,2.5-1.2,3.5c-0.2,1-0.9,2.8-1.5,4.1c-0.6,1.2-1.1,2.5-1.1,2.8
			c0,0.2-2.3,4.9-5,10.3c-4.6,9.1-13.8,23.9-18.8,30c-3.4,4.2-19.4,20.4-22.6,23c-1.7,1.2-4.1,3.2-5.4,4.2
			c-3.2,2.6-15,10.4-17.1,11.5c-0.9,0.5-2.4,1.3-3.3,1.9c-2,1.4-12.3,6.6-13,6.6c-0.3,0-1.6,0.5-2.8,1.1c-1.3,0.6-2.6,1.1-2.8,1.1
			s-1.5,0.5-2.9,1.1c-3.3,1.5-5.3,2.2-8.9,3.1c-1.7,0.5-3.6,1-4.1,1.2c-1,0.4-1-0.5-1-14.2c0-14.1,0.1-14.8,1.2-17.1
			c1.1-2,2-2.8,5.3-4.4c13-6.2,17.4-8.2,17.6-8.2c0.2,0,2.8-1.2,6-2.8l5.7-2.8l1.6,1.1c0.9,0.7,2.2,1.1,2.9,1
			c5.3-0.7,1.9-15.2-3.6-15.2c-0.9,0-3.6,0.9-6,2c-5,2.3-10.1,4.7-17.4,8.2c-15.8,7.4-14.9,7.1-20.1,7c-4.5-0.1-5.2-0.3-10.2-2.7
			c-23.7-11.3-31-14.6-32.6-14.6c-2.9,0-5.4,3.6-6.2,8.8c-0.8,5.2,1.9,8,5.3,5.5l1.7-1.2l6.7,3.2c3.7,1.8,11.2,5.3,16.6,7.8
			c7,3.2,10.1,5,10.6,5.9c0.4,0.7,1,1.6,1.3,1.9c0.9,0.9,0.9,34.2,0.1,34.7c-1.9,1.1-16.3,2.2-32.3,2.3
			C181.3,6470.1,181,6470.1,173.4,6468.5z M144,6414.3c6.1-2,10.3-8.2,10.3-15c0-16.8-22.7-22.1-30.1-6.9c-4,8.2,0.1,18.9,8.6,21.9
			C135.9,6415.3,140.9,6415.4,144,6414.3z M168.5,6377.4c1.2-1.2,3.7-3.4,5.4-5c1.7-1.6,8.7-7.9,15.6-14
			c6.9-6.1,12.9-11.7,13.6-12.3c2.2-2.5,1.1-5-4.2-10c-3.7-3.4-4.4-3.3-10.1,1.8c-12.8,11.5-23.3,20.8-24.6,21.8l-1.6,1.1v-15.9
			c0-15.2-0.1-16-1.1-17.1c-1.1-1.1-1.9-1.1-22.9-1.1c-19.1,0-22,0.1-22.7,0.9c-0.8,0.7-0.9,3.1-0.9,17c0,8.8-0.2,16.1-0.5,16.1
			c-0.3,0-2.4-1.7-4.7-3.7c-7.3-6.6-13.1-11.8-18.9-17.1c-5.9-5.3-7.5-6.4-9.1-6.4c-1.2,0-8.1,7.1-8.5,8.9c-0.2,0.7-0.2,1.7,0,2.3
			c0.2,0.6,6.4,6.5,13.8,13c13.4,12,14.6,13.1,20.6,18.7l3.2,3h27.6h27.6L168.5,6377.4z M290.9,6366.6c11.5-6.2,10.7-23.4-1.3-28.6
			c-8.1-3.5-17.5,0.2-20.9,8.2c-1.6,3.7-1.7,9.2-0.1,12.9C272.3,6367.5,282.7,6371,290.9,6366.6z M295.4,6332.4l1.4-1.1l0.2-16.2
			l0.2-16.2l1.8-0.7c5.8-2.4,15.4-10.4,20.4-17c3.5-4.6,8-13.7,9.5-19.3c4.4-16.2,1.2-34.4-8.3-47.9c-8-11.3-19.4-19.2-33-22.8
			c-4.7-1.2-6.6-1.5-14-1.5c-7.4,0-9.2,0.2-14.2,1.5c-14.3,3.8-26.5,12.8-34.4,25.4c-2.2,3.4-5,9.2-5,10.2c0,1.6-1.2,0-5.3-7
			c-5.3-9.2-5.6-9.4-10.8-6.2c-10.5,6.4-19.1,12.4-19.2,13.2c-0.2,1.9,0.2,2.9,1.6,5.2c2,3.1,3.5,3.3,6.9,1.4c1.5-0.9,2.7-1.3,2.8-1
			c0.2,0.5,24,41.5,26.2,45c0.5,0.7,3.9,0.9,23.8,1l23.3,0.2v6.2v6.2h-18.4h-18.4l-1.5,1.3c-2.9,2.5-2.4,10.8,0.7,12.3
			c1,0.4,7.1,0.6,19.5,0.6h18.2v12.8v12.8l1.4,1.4c1.4,1.4,1.4,1.4,12.4,1.4C293.1,6333.5,294.2,6333.4,295.4,6332.4z M162,6287.7
			c0.7-1.3-8.5-63.2-9.6-64.5c-0.6-0.7-2.7-0.9-13.9-0.9c-10.4,0-13.3,0.2-13.8,0.8c-0.6,0.7-9.7,59.8-9.7,63.2c0,1,0.3,1.9,0.7,2
			c0.3,0.2,10.8,0.3,23.2,0.3C160,6288.7,161.5,6288.6,162,6287.7z" />
			<path class="st3" d="M297.1,6271.9c0-7.1-0.2-12.6-0.6-13.3c-1.1-2-4-2.3-32.7-2.3h-27.9l-3.3-5.5c-3.7-6.3-3.9-7.5-1.9-15.2
			c2-7.8,6.2-15,12.4-20.8c7.9-7.5,16.9-11.5,27.9-12.1c19.8-1.2,38.3,11.5,44.8,30.7c5.6,16.9-0.5,37-14.6,48.1
			c-1.9,1.5-3.5,2.7-3.7,2.7C297.2,6284.1,297.1,6278.6,297.1,6271.9z" />
		</g>
	</g>
</svg>
